<?xml version="1.0" encoding="UTF-8" standalone="no"?>
<svg width="63px" height="63px" viewBox="0 0 63 63" version="1.1" xmlns="http://www.w3.org/2000/svg" xmlns:xlink="http://www.w3.org/1999/xlink">
    <!-- Generator: Sketch 3.7.2 (28276) - http://www.bohemiancoding.com/sketch -->
    <title>Page 1</title>
    <desc>Created with Sketch.</desc>
    <defs>
        <polygon id="path-1" points="23.1876764 23.2163152 23.1876764 0.0346778413 0.104169437 0.0346778413 0.104169437 23.2163152 23.1876764 23.2163152"></polygon>
    </defs>
    <g id="Page-1" stroke="none" stroke-width="1" fill="none" fill-rule="evenodd">
        <g id="Work-We-Do-Site-1-Copy-19" transform="translate(-58.000000, -47.000000)">
            <g id="Page-1" transform="translate(60.000000, 47.000000)">
                <g id="Group-3" transform="translate(35.090101, 0.655978)">
                    <mask id="mask-2" fill="white">
                        <use xlink:href="#path-1"></use>
                    </mask>
                    <g id="Clip-2"></g>
                    <path d="M7.49097972,17.6388632 C10.0436126,20.2017077 13.7996294,20.6818093 17.2040573,17.2637623 C20.6470154,13.8070309 20.2114854,10.0346067 17.6602286,7.47314387 L15.0243428,4.8267134 L4.87711122,15.0145382 L7.49097972,17.6388632 Z M0.104169437,14.8059185 L14.8165543,0.0346778413 L20.0257142,5.26467657 C24.029426,9.28440483 24.5282558,15.1181572 19.7972846,19.8680543 C15.0869545,24.5972277 9.27507054,24.013507 5.29131202,20.0138118 L0.104169437,14.8059185 Z" id="Fill-1" fill="#000000" mask="url(#mask-2)"></path>
                </g>
                <polygon id="Fill-4" fill="#000000" points="25.4417681 11.6828404 29.080818 11.6828404 23.2414124 32.570368 19.6023625 32.570368 14.5535162 16.7781343 9.50742205 32.570368 5.8972699 32.570368 6.88041182e-05 11.6828404 3.69622611 11.6828404 7.86369164 26.9445445 12.7350233 11.6828404 16.4029709 11.6828404 21.3630599 27.0619794"></polygon>
                <g id="Group-8" transform="translate(22.705359, 30.360105)" fill="#000000">
                    <polygon id="Fill-6" points="18.5716768 3.1314367 21.1449508 0.547868444 31.7263364 19.4631802 29.1530623 22.0467484 14.4613187 14.4645973 22.0146349 29.2137326 19.4620021 31.776577 0.581463615 21.1936183 3.19533212 18.5692932 16.8907921 26.4028932 9.58654679 12.152511 12.1804621 9.54821892 26.5192406 16.9017173"></polygon>
                </g>
            </g>
        </g>
    </g>
</svg>